{
	"asset":{
		"generator":"Khronos glTF Blender I/O v4.2.60",
		"version":"2.0"
	},
	"scene":0,
	"scenes":[
		{
			"name":"Scene",
			"nodes":[
				0
			]
		}
	],
	"nodes":[
		{
			"mesh":0,
			"name":"grass.yum"
		}
	],
	"meshes":[
		{
			"name":"Plane.001",
			"primitives":[
				{
					"attributes":{
						"POSITION":0,
						"NORMAL":1,
						"TEXCOORD_0":2
					},
					"indices":3
				}
			]
		}
	],
	"accessors":[
		{
			"bufferView":0,
			"componentType":5126,
			"count":102,
			"max":[
				1.0346086025238037,
				1.7616130113601685,
				1.053871750831604
			],
			"min":[
				-0.9356347918510437,
				-0.009587260894477367,
				-0.9551476240158081
			],
			"type":"VEC3"
		},
		{
			"bufferView":1,
			"componentType":5126,
			"count":102,
			"type":"VEC3"
		},
		{
			"bufferView":2,
			"componentType":5126,
			"count":102,
			"type":"VEC2"
		},
		{
			"bufferView":3,
			"componentType":5123,
			"count":312,
			"type":"SCALAR"
		}
	],
	"bufferViews":[
		{
			"buffer":0,
			"byteLength":1224,
			"byteOffset":0,
			"target":34962
		},
		{
			"buffer":0,
			"byteLength":1224,
			"byteOffset":1224,
			"target":34962
		},
		{
			"buffer":0,
			"byteLength":816,
			"byteOffset":2448,
			"target":34962
		},
		{
			"buffer":0,
			"byteLength":624,
			"byteOffset":3264,
			"target":34963
		}
	],
	"buffers":[
		{
			"byteLength":3888,
			"uri":"grass_yum.bin"
		}
	]
}
